<?xml version="1.0" standalone="no"?>
<!DOCTYPE svg PUBLIC "-//W3C//DTD SVG 20010904//EN"
 "http://www.w3.org/TR/2001/REC-SVG-20010904/DTD/svg10.dtd">
<svg version="1.0" xmlns="http://www.w3.org/2000/svg"
 width="578.000000pt" height="721.000000pt" viewBox="0 0 578.000000 721.000000"
 preserveAspectRatio="xMidYMid meet">

<g transform="translate(0.000000,721.000000) scale(0.100000,-0.100000)"
fill="#000000" stroke="none">
<path d="M2628 6845 c-134 -22 -248 -51 -355 -91 -586 -219 -999 -701 -1135
-1324 -19 -92 -22 -134 -23 -340 0 -207 3 -249 23 -349 47 -232 135 -445 261
-632 84 -125 1472 -1913 1486 -1914 13 0 1403 1788 1487 1915 125 188 214 403
260 634 20 97 23 141 23 346 -1 266 -13 344 -85 561 -198 595 -702 1043 -1324
1175 -102 22 -153 26 -326 30 -145 2 -230 -1 -292 -11z m587 -145 c651 -140
1141 -627 1286 -1282 15 -69 22 -143 26 -288 5 -169 2 -212 -16 -319 -37 -219
-133 -462 -253 -639 -43 -63 -1328 -1723 -1363 -1760 -10 -11 -137 147 -668
831 -361 465 -681 880 -711 923 -178 259 -277 583 -277 909 0 169 11 266 46
405 162 650 684 1126 1354 1235 130 21 446 13 576 -15z"/>
<path d="M2740 6414 c-360 -45 -690 -227 -913 -507 -351 -437 -390 -1075 -96
-1542 45 -71 1099 -1440 1143 -1484 12 -11 99 97 557 685 298 385 562 728 586
764 91 134 168 328 199 500 25 139 23 365 -5 497 -56 269 -176 496 -361 684
-254 259 -566 395 -925 403 -82 3 -166 2 -185 0z m290 -139 c258 -25 525 -156
721 -355 321 -325 432 -804 288 -1235 -64 -191 -98 -240 -631 -927 -274 -354
-505 -649 -512 -657 -12 -11 -91 86 -498 610 -266 343 -502 651 -525 684 -233
346 -269 801 -92 1183 181 393 564 662 997 702 86 7 123 7 252 -5z"/>
<path d="M2700 5780 c-207 -54 -383 -200 -476 -395 -52 -109 -68 -184 -68
-315 0 -136 17 -207 77 -330 34 -70 58 -102 136 -180 105 -105 179 -150 311
-192 62 -19 97 -23 205 -23 148 0 225 18 350 83 84 44 233 187 283 274 211
359 71 835 -301 1022 -151 76 -354 98 -517 56z m329 -122 c151 -28 317 -160
391 -310 121 -247 81 -509 -109 -699 -121 -122 -257 -179 -426 -179 -169 0
-305 57 -426 179 -190 191 -232 464 -106 705 70 135 206 250 350 296 85 27
210 30 326 8z"/>
<path d="M3089 1827 c-113 -39 -191 -117 -225 -225 -25 -80 -16 -219 18 -293
67 -146 236 -228 413 -200 133 20 232 90 284 200 23 50 26 68 26 171 0 108 -2
119 -30 173 -61 123 -172 187 -330 194 -75 3 -101 0 -156 -20z m228 -138 c42
-13 109 -87 122 -135 45 -162 -53 -304 -209 -304 -156 0 -254 142 -209 304 6
21 30 59 53 84 63 66 141 83 243 51z"/>
<path d="M280 1476 l0 -356 75 0 74 0 3 138 3 137 115 6 c91 4 124 10 157 27
77 40 107 103 101 212 -4 80 -33 126 -101 163 -39 20 -58 22 -234 25 l-193 4
0 -356z m315 210 c58 -25 71 -76 31 -123 -23 -27 -29 -28 -108 -28 l-83 0 -3
69 c-2 38 -1 75 2 83 7 18 116 17 161 -1z"/>
<path d="M970 1475 l0 -355 80 0 80 0 0 355 0 355 -80 0 -80 0 0 -355z"/>
<path d="M1330 1475 l0 -355 80 0 80 0 2 249 3 249 151 -247 151 -246 101 -3
102 -3 0 356 0 355 -75 0 -75 0 0 -242 c0 -204 -2 -240 -13 -228 -8 8 -76 117
-152 243 l-138 227 -109 0 -108 0 0 -355z"/>
<path d="M2210 1475 l0 -355 80 0 80 0 0 140 0 140 93 0 c198 0 278 62 279
214 0 71 -18 122 -58 160 -49 45 -108 56 -301 56 l-173 0 0 -355z m344 196
c17 -16 26 -35 26 -56 0 -21 -9 -40 -26 -56 -22 -20 -38 -24 -105 -28 l-79 -3
0 87 0 87 79 -3 c67 -4 83 -8 105 -28z"/>
<path d="M3760 1475 l0 -355 80 0 80 0 0 355 0 355 -80 0 -80 0 0 -355z"/>
<path d="M4120 1475 l0 -355 80 0 80 0 0 252 0 252 153 -249 153 -250 102 -3
102 -3 0 356 0 355 -75 0 -75 0 0 -241 c0 -132 -4 -238 -8 -235 -5 3 -74 111
-153 241 l-143 235 -108 0 -108 0 0 -355z"/>
<path d="M4932 1763 l3 -68 103 -3 102 -3 0 -284 0 -285 75 0 75 0 0 285 0
284 103 3 102 3 3 68 3 67 -286 0 -286 0 3 -67z"/>
<path d="M1969 802 c-77 -40 -113 -100 -118 -199 -5 -114 35 -193 123 -241 43
-24 206 -23 259 0 l37 17 0 110 0 111 -80 0 c-73 0 -80 -2 -80 -20 0 -18 7
-20 55 -20 l55 0 0 -80 0 -79 -37 -10 c-57 -16 -133 -13 -178 8 -122 55 -153
224 -62 328 60 68 154 83 242 38 36 -18 52 -21 62 -13 21 17 16 25 -39 52 -75
37 -166 37 -239 -2z"/>
<path d="M2430 642 c0 -167 2 -182 23 -222 29 -55 75 -80 145 -80 69 0 116 22
144 69 21 33 23 49 26 224 3 181 3 187 -16 187 -19 0 -20 -8 -24 -172 -3 -153
-5 -177 -24 -208 -27 -47 -58 -62 -118 -57 -95 8 -116 61 -116 285 0 145 -1
152 -20 152 -19 0 -20 -7 -20 -178z"/>
<path d="M2996 637 c-44 -100 -90 -206 -103 -234 l-23 -53 24 0 c20 0 28 11
51 65 l28 65 122 0 123 0 25 -62 c21 -53 29 -63 52 -66 15 -2 26 1 24 6 -2 5
-47 111 -99 236 -124 296 -115 294 -224 43z m158 -1 c25 -61 44 -111 42 -113
-2 -2 -48 -2 -103 -1 l-100 3 50 118 c28 65 54 114 58 110 4 -4 28 -57 53
-117z"/>
<path d="M3420 586 l0 -236 25 0 25 0 2 201 3 202 88 -202 c49 -110 94 -201
100 -201 7 0 50 90 97 199 l85 199 3 -199 2 -199 25 0 25 0 0 235 0 235 -34 0
-33 0 -85 -196 -85 -195 -84 193 -84 193 -38 3 -37 3 0 -235z"/>
<path d="M770 560 c0 -6 138 -10 395 -10 257 0 395 4 395 10 0 6 -138 10 -395
10 -257 0 -395 -4 -395 -10z"/>
<path d="M4210 560 c0 -6 139 -10 396 -10 261 0 393 3 389 10 -8 14 -785 14
-785 0z"/>
</g>
</svg>
